Coordinates
version=1
nRows=15
nColumns=46
inDegrees=yes

Units are S.I. units (second, meters, Newtons, ...)
Angles are in degrees.

endheader
time	pelvis_tilt	pelvis_list	pelvis_rotation	pelvis_tx	pelvis_ty	pelvis_tz	bb_angle	bb_tx	bb_ty	bb_tz	hip_flexion_r	hip_adduction_r	hip_rotation_r	knee_angle_r	knee_angle_r_beta	ankle_angle_r	subtalar_angle_r	mtp_angle_r	crank_angle_r	hip_flexion_l	hip_adduction_l	hip_rotation_l	knee_angle_l	knee_angle_l_beta	ankle_angle_l	subtalar_angle_l	mtp_angle_l	crank_angle_l	lumbar_extension	lumbar_bending	lumbar_rotation	arm_flex_r	arm_add_r	arm_rot_r	elbow_flex_r	pro_sup_r	wrist_flex_r	wrist_dev_r	arm_flex_l	arm_add_l	arm_rot_l	elbow_flex_l	pro_sup_l	wrist_flex_l	wrist_dev_l
      7.50000000	    -20.99310591	      4.60677304	     15.62364078	      0.36842456	      1.21405282	     -0.24964841	      0.00000000	      0.50000000	      0.00000000	      0.25000000	     33.87396241	    -11.66475812	      1.48838242	     58.92223574	      1.02838702	    -38.68962600	     -5.45664865	      0.00000000	      0.00000000	     57.93952085	     10.05148461	      3.72422388	     72.13287560	      1.25895618	     10.68330076	     -7.10385249	      0.00000000	      0.00000000	    -67.37736492	      6.09551721	     -5.00644071	     32.71927587	    -12.01606703	     -0.20898425	    103.81075171	     51.14134971	      0.00000000	      0.00000000	     47.05862041	    -13.26220887	     21.38286805	     92.25589338	     56.01363413	      0.00000000	      0.00000000
      7.50500000	    -20.81289840	      3.99292980	     15.93204324	      0.36875249	      1.21419988	     -0.24946877	      0.00000000	      0.50000000	      0.00000000	      0.25000000	     34.62128971	    -11.05658989	      1.31825837	     60.91661417	      1.06319549	    -38.66357959	     -5.42854223	      0.00000000	      0.00000000	     56.77201980	      9.52961228	      4.24340877	     69.91890014	      1.22031502	      9.80011765	     -6.31045603	      0.00000000	      0.00000000	    -67.55803331	      6.66938621	     -4.69299969	     32.84156477	    -11.93138900	     -0.16133070	    103.74221521	     51.13741919	      0.00000000	      0.00000000	     46.99685435	    -13.37147192	     21.28045880	     92.34380598	     56.01386804	      0.00000000	      0.00000000
      7.51000000	    -20.66890441	      3.38613392	     16.16569851	      0.36903246	      1.21405156	     -0.24939478	      0.00000000	      0.50000000	      0.00000000	      0.25000000	     35.39716282	    -10.51201787	      1.02978786	     62.98290988	      1.09925915	    -38.36661251	     -5.77820443	      0.00000000	      0.00000000	     55.62710681	      8.93256786	      4.58353432	     67.67872134	      1.18121652	      8.87128973	     -5.56769493	      0.00000000	      0.00000000	    -67.66327682	      7.20368324	     -4.47356950	     33.03560360	    -11.72510600	     -0.04413873	    103.64822046	     51.13850650	      0.00000000	      0.00000000	     46.84694972	    -13.59540766	     21.08344062	     92.60381024	     56.03071926	      0.00000000	      0.00000000
      7.51500000	    -20.62144381	      2.70453341	     16.29725787	      0.36913391	      1.21331784	     -0.24915591	      0.00000000	      0.50000000	      0.00000000	      0.25000000	     36.33430354	     -9.87555623	      0.72183032	     65.20638116	      1.13806604	    -37.64954209	     -6.50468701	      0.00000000	      0.00000000	     54.61695672	      8.23464299	      5.04509752	     65.58390162	      1.14465502	      8.22886380	     -4.59670804	      0.00000000	      0.00000000	    -67.56623180	      7.83996079	     -5.63089619	     34.32380075	    -10.40056503	      1.69973365	    102.12465793	     51.12532047	      0.00000000	      0.00000000	     45.29628120	    -15.08181593	     19.15264952	     94.74612658	     56.12233354	      0.00000000	      0.00000000
      7.52000000	    -20.57357096	      2.10229134	     16.33919171	      0.36923578	      1.21243549	     -0.24891415	      0.00000000	      0.50000000	      0.00000000	      0.25000000	     37.27476086	     -9.31836203	      0.43578515	     67.51690520	      1.17839230	    -36.41829919	     -7.21821711	      0.00000000	      0.00000000	     53.54773536	      7.57216700	      5.31392172	     63.38394055	      1.10625846	      7.06281611	     -4.05447754	      0.00000000	      0.00000000	    -67.46964897	      8.18296908	     -5.30124644	     34.43172346	    -10.23250657	      1.93169736	    102.01621592	     51.13808812	      0.00000000	      0.00000000	     45.14911972	    -15.23644317	     19.02886140	     94.82166996	     56.11610605	      0.00000000	      0.00000000
      7.52500000	    -20.68940344	      1.62707891	     16.31679877	      0.36920024	      1.21109488	     -0.24887320	      0.00000000	      0.50000000	      0.00000000	      0.25000000	     38.43682529	     -8.96394158	      0.21953579	     69.97526844	      1.22129883	    -34.68832508	     -7.82669031	      0.00000000	      0.00000000	     52.55178393	      7.06427336	      5.47136387	     61.07125508	      1.06589448	      5.78250056	     -4.07920202	      0.00000000	      0.00000000	    -67.15446832	      8.54521836	     -6.29947592	     35.37940768	     -9.23046441	      3.61087936	    100.60271856	     51.14925580	      0.00000000	      0.00000000	     43.85428556	    -16.47867486	     17.59240154	     96.21186727	     56.12316327	      0.00000000	      0.00000000
      7.53000000	    -20.70818864	      1.01261573	     16.21111848	      0.36926150	      1.20965800	     -0.24854943	      0.00000000	      0.50000000	      0.00000000	      0.25000000	     39.49960188	     -8.37030040	     -0.04894985	     72.38977902	      1.26343999	    -32.72617385	     -8.72016579	      0.00000000	      0.00000000	     51.45580066	      6.32769774	      5.69614799	     58.84005083	      1.02695262	      4.79000543	     -3.71943327	      0.00000000	      0.00000000	    -66.92511364	      8.76571941	     -5.89008188	     35.40067261	     -9.08798004	      3.83711137	    100.48260250	     51.15906709	      0.00000000	      0.00000000	     43.61320893	    -16.59653119	     17.48172964	     96.26249009	     56.11614088	      0.00000000	      0.00000000
      7.53500000	    -20.90919883	      0.62044809	     15.96518243	      0.36933053	      1.20776485	     -0.24841508	      0.00000000	      0.50000000	      0.00000000	      0.25000000	     40.83407588	     -8.06733801	     -0.08771344	     74.92983602	      1.30777235	    -30.42527423	     -8.90830177	      0.00000000	      0.00000000	     50.37525744	      5.77042429	      5.74460493	     56.51904729	      0.98644347	      3.78046510	     -3.81934107	      0.00000000	      0.00000000	    -66.43871342	      8.90453082	     -6.82726580	     36.17370077	     -8.15810816	      5.43343976	     99.01894999	     51.14476490	      0.00000000	      0.00000000	     42.22570621	    -17.68410048	     16.04799602	     97.45946892	     56.09819498	      0.00000000	      0.00000000
      7.54000000	    -21.03092731	      0.09364196	     15.58666602	      0.36945208	      1.20583023	     -0.24799737	      0.00000000	      0.50000000	      0.00000000	      0.25000000	     42.09686108	     -7.48417955	     -0.12024984	     77.38636642	      1.35064689	    -28.09173404	     -9.38299414	      0.00000000	      0.00000000	     49.23955935	      4.97153213	      5.82612092	     54.26492252	      0.94710157	      2.94268550	     -3.61770701	      0.00000000	      0.00000000	    -66.04660972	      8.90022088	     -6.56891540	     36.15116035	     -7.96564214	      5.86681090	     98.79055612	     51.16963557	      0.00000000	      0.00000000	     41.70970167	    -17.89587155	     15.75660783	     97.57577748	     56.07426915	      0.00000000	      0.00000000
      7.54500000	    -21.04880652	     -0.45021344	     15.26892226	      0.36964858	      1.20392396	     -0.24772525	      0.00000000	      0.50000000	      0.00000000	      0.25000000	     43.22905279	     -6.90406608	     -0.25406898	     79.78608611	      1.39252990	    -25.75682408	     -9.89363939	      0.00000000	      0.00000000	     47.93409002	      4.20490304	      6.00969644	     51.97518850	      0.90713817	      2.09889990	     -3.52293880	      0.00000000	      0.00000000	    -65.70073566	      9.11345227	     -6.94935240	     36.65986863	     -7.29419271	      7.00441867	     97.74056207	     51.16902504	      0.00000000	      0.00000000	     40.48439151	    -18.65689868	     14.60214741	     98.45675934	     56.04547447	      0.00000000	      0.00000000
      7.55000000	    -21.08060449	     -1.06676049	     14.81022174	      0.37009875	      1.20199796	     -0.24731320	      0.00000000	      0.50000000	      0.00000000	      0.25000000	     44.37618770	     -6.19555637	     -0.37441525	     82.07140674	      1.43241627	    -23.39124712	    -10.36906144	      0.00000000	      0.00000000	     46.61442684	      3.24468746	      6.13895766	     49.71403073	      0.86767352	      1.36750189	     -3.10384839	      0.00000000	      0.00000000	    -65.38726888	      9.12357926	     -6.45714292	     36.61136546	     -7.19963266	      7.24373548	     97.60499048	     51.18133199	      0.00000000	      0.00000000	     39.94593762	    -18.77733402	     14.43437192	     98.47926916	     56.02807837	      0.00000000	      0.00000000
      7.55500000	    -21.08075102	     -1.65712817	     14.29274939	      0.37054356	      1.20005956	     -0.24691721	      0.00000000	      0.50000000	      0.00000000	      0.25000000	     45.51598739	     -5.44498725	     -0.37133158	     84.34629172	      1.47212050	    -20.96644790	    -10.55630714	      0.00000000	      0.00000000	     45.18861529	      2.28729649	      6.25942822	     47.42548432	      0.82773085	      0.77410396	     -2.86079022	      0.00000000	      0.00000000	    -65.06534601	      9.15527776	     -5.95042701	     36.60396731	     -7.09370008	      7.53422318	     97.42635639	     51.19143764	      0.00000000	      0.00000000	     39.33896487	    -18.92607940	     14.14296829	     98.55500492	     56.00453023	      0.00000000	      0.00000000
      7.56000000	    -21.10443797	     -2.19960042	     13.75341440	      0.37113745	      1.19809764	     -0.24696575	      0.00000000	      0.50000000	      0.00000000	      0.25000000	     46.67078387	     -4.79185356	     -0.31844162	     86.57821872	      1.51107498	    -18.31776004	    -10.28895700	      0.00000000	      0.00000000	     43.67205547	      1.43294059	      6.39282001	     45.06129570	      0.78646798	      0.16917418	     -2.93758339	      0.00000000	      0.00000000	    -64.70312877	      9.43478685	     -6.54836793	     37.39124552	     -6.32321126	      8.94512939	     96.18512547	     51.19421042	      0.00000000	      0.00000000	     37.59901786	    -19.70410871	     12.26854565	     99.70691638	     55.93492967	      0.00000000	      0.00000000
      7.56500000	    -21.06056114	     -2.81478488	     13.11078130	      0.37179051	      1.19616086	     -0.24684056	      0.00000000	      0.50000000	      0.00000000	      0.25000000	     47.81977364	     -3.93727682	     -0.20098562	     88.77632861	      1.54943923	    -15.82828724	    -10.12376728	      0.00000000	      0.00000000	     42.11662035	      0.39264919	      6.38473706	     42.81507452	      0.74726402	     -0.31986474	     -2.76611592	      0.00000000	      0.00000000	    -64.42961314	      9.47753901	     -5.90166645	     37.37306744	     -6.34703745	      9.16191947	     96.06804461	     51.20967698	      0.00000000	      0.00000000	     36.97944409	    -19.74360325	     12.02814911	     99.73702025	     55.90923860	      0.00000000	      0.00000000
      7.57000000	    -21.08079695	     -3.45699940	     12.40568560	      0.37234202	      1.19418854	     -0.24690881	      0.00000000	      0.50000000	      0.00000000	      0.25000000	     49.07016283	     -3.07003380	     -0.04356058	     90.91226193	      1.58671830	    -13.31062761	     -9.64067355	      0.00000000	      0.00000000	     40.58520496	     -0.61517371	      6.41689619	     40.54991212	      0.70772948	     -0.88960035	     -2.89577320	      0.00000000	      0.00000000	    -64.11153160	      9.57093565	     -5.25213737	     37.42944350	     -6.37703986	      9.49133062	     95.93893141	     51.23558022	      0.00000000	      0.00000000	     36.27280679	    -19.74027400	     11.60734987	     99.79767477	     55.86584489	      0.00000000	      0.00000000
